<svg width="14" height="14" viewBox="0 0 14 14" fill="none" xmlns="http://www.w3.org/2000/svg">
<g id="Frame 672">
<rect width="14" height="14" rx="2" fill="#FE7A1F"/>
<path id="Combined Shape" fill-rule="evenodd" clip-rule="evenodd" d="M9.82272 4.13716C9.61567 3.93075 9.27647 3.94524 9.08778 4.16856L5.9859 7.83988L4.86186 6.66609C4.66789 6.46353 4.34527 6.4601 4.14704 6.6585L3.79381 7.01203C3.60167 7.20433 3.59837 7.51492 3.78639 7.71125L5.63759 9.64439C5.78397 9.79725 6.00359 9.83671 6.18774 9.76162C6.28967 9.73852 6.38544 9.68333 6.45859 9.59675L6.73783 9.26624L7.05134 8.95247L7.02563 8.92562L10.2033 5.16456C10.3713 4.9658 10.3587 4.67147 10.1744 4.48777L9.82272 4.13716Z" fill="white"/>
</g>
</svg>
