<svg width="16" height="16" viewBox="0 0 16 16" fill="none" xmlns="http://www.w3.org/2000/svg">
<g id="&#233;&#128;&#137;&#228;&#184;&#173;" clip-path="url(#clip0_860_51056)">
<path id="Vector" d="M8 0C5.87827 0 3.84344 0.842855 2.34315 2.34315C0.842855 3.84344 0 5.87827 0 8C0 10.1217 0.842855 12.1566 2.34315 13.6569C3.84344 15.1571 5.87827 16 8 16C10.1217 16 12.1566 15.1571 13.6569 13.6569C15.1571 12.1566 16 10.1217 16 8C16 5.87827 15.1571 3.84344 13.6569 2.34315C12.1566 0.842855 10.1217 0 8 0ZM10.3874 4.76457C10.4384 4.70417 10.5013 4.65498 10.5722 4.62013C10.6431 4.58527 10.7205 4.5655 10.7994 4.56207C10.8783 4.55863 10.9571 4.5716 11.0308 4.60016C11.1045 4.62872 11.1714 4.67225 11.2274 4.728L11.6286 5.128C11.7307 5.22916 11.791 5.36511 11.7973 5.50872C11.8037 5.65233 11.7557 5.79307 11.6629 5.90286L8.03086 10.2L8.05943 10.232L7.70171 10.5897L7.38171 10.9669C7.30232 11.0621 7.19395 11.1287 7.07314 11.1566C6.96704 11.1999 6.85037 11.2103 6.73828 11.1864C6.62619 11.1626 6.52386 11.1056 6.44457 11.0229L4.328 8.81143C4.22485 8.70347 4.16806 8.55944 4.16977 8.41014C4.17148 8.26084 4.23155 8.11814 4.33714 8.01257L4.74057 7.60914C4.79432 7.55523 4.8583 7.51261 4.92875 7.48377C4.9992 7.45493 5.0747 7.44046 5.15083 7.4412C5.22695 7.44195 5.30215 7.4579 5.37203 7.48811C5.4419 7.51832 5.50503 7.56219 5.55771 7.61714L6.84229 8.96L10.3874 4.76457Z" fill="#FE7A1F"/>
</g>
<defs>
<clipPath id="clip0_860_51056">
<rect width="16" height="16" fill="white"/>
</clipPath>
</defs>
</svg>
