<?xml version="1.0" standalone="no"?><!DOCTYPE svg PUBLIC "-//W3C//DTD SVG 1.1//EN" "http://www.w3.org/Graphics/SVG/1.1/DTD/svg11.dtd"><svg t="1686538297616" class="icon" viewBox="0 0 1024 1024" version="1.1" xmlns="http://www.w3.org/2000/svg" p-id="4384" width="20" height="20" xmlns:xlink="http://www.w3.org/1999/xlink"><path d="M981.333333 725.333333a256 256 0 1 1-512 0 256 256 0 0 1 512 0z" fill="#FE7A1F" p-id="4385"></path><path d="M896 725.333333a170.666667 170.666667 0 1 1-341.333333 0 170.666667 170.666667 0 0 1 341.333333 0z" fill="#FFEFE4" p-id="4386"></path><path d="M752.128 1.066667l249.472 249.429333-719.786667 719.786667H32.426667v-249.429334L752.170667 1.066667zM128.341333 760.618667v113.664h113.706667l496.682667-496.64-113.664-113.706667-496.682667 496.64zM692.992 196.053333l113.664 113.664 59.221333-59.221333-113.706666-113.664-59.178667 59.221333z" fill="#4C4B67" p-id="4387"></path></svg>