<svg width="16" height="16" viewBox="0 0 16 16" fill="none" xmlns="http://www.w3.org/2000/svg">
<g id="&#230;&#156;&#170;&#233;&#128;&#137;&#228;&#184;&#173;" clip-path="url(#clip0_860_51054)">
<path id="Vector" d="M8 14.2857C6.33292 14.2857 4.73413 13.6235 3.55533 12.4447C2.37653 11.2659 1.71429 9.66708 1.71429 8C1.71429 6.33292 2.37653 4.73413 3.55533 3.55533C4.73413 2.37653 6.33292 1.71429 8 1.71429C9.66708 1.71429 11.2659 2.37653 12.4447 3.55533C13.6235 4.73413 14.2857 6.33292 14.2857 8C14.2857 9.66708 13.6235 11.2659 12.4447 12.4447C11.2659 13.6235 9.66708 14.2857 8 14.2857ZM8 16C10.1217 16 12.1566 15.1571 13.6569 13.6569C15.1571 12.1566 16 10.1217 16 8C16 5.87827 15.1571 3.84344 13.6569 2.34315C12.1566 0.842855 10.1217 0 8 0C5.87827 0 3.84344 0.842855 2.34315 2.34315C0.842855 3.84344 0 5.87827 0 8C0 10.1217 0.842855 12.1566 2.34315 13.6569C3.84344 15.1571 5.87827 16 8 16Z" fill="#D9D9D9"/>
</g>
<defs>
<clipPath id="clip0_860_51054">
<rect width="16" height="16" fill="white"/>
</clipPath>
</defs>
</svg>
