<?xml version="1.0" standalone="no"?><!DOCTYPE svg PUBLIC "-//W3C//DTD SVG 1.1//EN" "http://www.w3.org/Graphics/SVG/1.1/DTD/svg11.dtd"><svg t="1682588419141" class="icon" viewBox="0 0 1024 1024" version="1.1" xmlns="http://www.w3.org/2000/svg" p-id="4248" xmlns:xlink="http://www.w3.org/1999/xlink" width="200" height="200"><path d="M1024 512c0 282.752-229.248 512-512 512S0 794.752 0 512 229.248 0 512 0s512 229.248 512 512z" fill="#FE7A1F" p-id="4249"></path><path d="M362.666667 243.2a29.866667 29.866667 0 1 0-59.733334 0v59.733333H243.2a29.866667 29.866667 0 1 0 0 59.733334h59.733333v59.733333a29.866667 29.866667 0 1 0 59.733334 0V362.666667h59.733333a29.866667 29.866667 0 1 0 0-59.733334H362.666667V243.2z m54.656 363.477333a29.909333 29.909333 0 0 0-42.368 0.042667l-42.154667 42.368-42.154667-42.368a29.909333 29.909333 0 1 0-42.325333 42.325333l42.368 42.154667-42.368 42.154667a29.909333 29.909333 0 1 0 42.325333 42.325333l42.154667-42.368 42.154667 42.368a29.909333 29.909333 0 1 0 42.325333-42.325333l-42.368-42.154667 42.368-42.154667a29.909333 29.909333 0 0 0 0.042667-42.368zM571.733333 332.8a29.866667 29.866667 0 0 1 29.866667-29.866667h179.2a29.866667 29.866667 0 1 1 0 59.733334h-179.2a29.866667 29.866667 0 0 1-29.866667-29.866667z m0 358.4a29.866667 29.866667 0 0 1 29.866667-29.866667h179.2a29.866667 29.866667 0 1 1 0 59.733334h-179.2a29.866667 29.866667 0 0 1-29.866667-29.866667zM661.333333 780.8a29.866667 29.866667 0 1 0 59.776 0 29.866667 29.866667 0 0 0-59.776 0zM661.333333 601.6a29.866667 29.866667 0 1 0 59.733334 0 29.866667 29.866667 0 0 0-59.733334 0z" fill="#FFFFFF" p-id="4250"></path></svg>